name Walk5.mot
datacolumns 19
datarows 20
range 1.82500000 1.92000000
endheader

                time	   L_ground_force_vx	   L_ground_force_vy	   L_ground_force_vz	   L_ground_force_px	   L_ground_force_py	   L_ground_force_pz	   R_ground_force_vx	   R_ground_force_vy	   R_ground_force_vz	   R_ground_force_px	   R_ground_force_py	   R_ground_force_pz	   L_ground_torque_x	   L_ground_torque_y	   L_ground_torque_z	   R_ground_torque_x	   R_ground_torque_y	   R_ground_torque_z	
          1.82500000	          3.15568928	         54.07068625	         -3.33292659	         -0.07901213	          0.00000000	         -0.00073589	          0.00000000	          0.00000000	          0.00000000	          0.00000000	          0.00000000	          0.00000000	          0.00000000	         -0.10699951	          0.00000000	          0.00000000	         -0.00000000	          0.00000000	
          1.83000000	          3.69690384	         83.22946628	         -4.52893357	         -0.17346271	          0.00000000	         -0.00299241	         -0.00000000	          0.00000000	          0.00000000	          0.00000000	          0.00000000	          0.00000000	          0.00000000	         -0.14556062	          0.00000000	          0.00000000	         -0.00000000	          0.00000000	
          1.83500000	          2.55706822	        113.03820107	         -5.82249062	         -0.25607468	          0.00000000	         -0.00486677	         -0.00000000	          0.00000000	          0.00000000	          0.00000000	          0.00000000	          0.00000000	          0.00000000	         -0.17030023	          0.00000000	          0.00000000	         -0.00000000	          0.00000000	
          1.84000000	         -0.46078318	        142.49765634	         -7.11668336	         -0.32438672	          0.00000000	         -0.00632495	         -0.00000000	          0.00000000	          0.00000000	          0.00000000	          0.00000000	          0.00000000	          0.00000000	         -0.17740483	          0.00000000	          0.00000000	         -0.00000000	          0.00000000	
          1.84500000	         -5.24465399	        171.08946176	         -8.28382153	         -0.37796015	          0.00000000	         -0.00740181	         -0.00000000	          0.00000000	          0.00000000	          0.00000000	          0.00000000	          0.00000000	          0.00000000	         -0.16549494	          0.00000000	          0.00000000	          0.00000000	          0.00000000	
          1.85000000	        -11.39702372	        198.63104249	         -9.19386462	         -0.41769126	          0.00000000	         -0.00817004	         -0.00000000	          0.00000000	          0.00000000	          0.00000000	          0.00000000	          0.00000000	          0.00000000	         -0.13616863	          0.00000000	          0.00000000	          0.00000000	          0.00000000	
          1.85500000	        -18.31506286	        225.04539175	         -9.74005646	         -0.44526533	          0.00000000	         -0.00871194	         -0.00000000	          0.00000000	         -0.00000000	         -0.00000000	          0.00000000	         -0.00000000	          0.00000000	         -0.09414458	          0.00000000	          0.00000000	          0.00000000	          0.00000000	
          1.86000000	        -25.28612565	        250.26291884	         -9.85226099	         -0.46273857	          0.00000000	         -0.00910629	         -0.00000000	         -0.00000000	         -0.00000000	         -0.00000000	          0.00000000	         -0.00000000	          0.00000000	         -0.04700338	          0.00000000	          0.00000000	          0.00000000	          0.00000000	
          1.86500000	        -31.62363632	        274.22752005	         -9.49697073	         -0.47223214	          0.00000000	         -0.00942113	         -0.00000000	         -0.00000000	         -0.00000000	         -0.00000000	          0.00000000	         -0.00000000	          0.00000000	         -0.00446517	          0.00000000	          0.00000000	          0.00000000	          0.00000000	
          1.87000000	        -36.84294010	        296.91329434	         -8.65868824	         -0.47572723	          0.00000000	         -0.00971356	         -0.00000000	         -0.00000001	         -0.00000000	         -0.00000000	          0.00000000	         -0.00000000	          0.00000000	          0.02364643	          0.00000000	          0.00000000	          0.00000000	          0.00000000	
          1.87500000	        -40.80707608	        318.31781121	         -7.31077218	         -0.47494363	          0.00000000	         -0.01002927	         -0.00000000	         -0.00000001	         -0.00000000	         -0.00000000	          0.00000000	         -0.00000000	          0.00000000	          0.03004089	          0.00000000	          0.00000000	          0.00000000	          0.00000000	
          1.88000000	        -43.73563450	        338.45391210	         -5.41491270	         -0.47129040	          0.00000000	         -0.01040207	         -0.00000000	         -0.00000002	         -0.00000000	         -0.00000000	          0.00000000	         -0.00000000	          0.00000000	          0.01146657	          0.00000000	          0.00000000	          0.00000000	          0.00000000	
          1.88500000	        -46.04799305	        357.37986832	         -2.95952037	         -0.46587046	          0.00000000	         -0.01085012	         -0.00000000	         -0.00000002	         -0.00000000	         -0.00000000	          0.00000000	         -0.00000000	          0.00000000	         -0.03046090	          0.00000000	          0.00000000	          0.00000000	          0.00000000	
          1.89000000	        -48.15594812	        375.24620983	          0.00414694	         -0.45951484	          0.00000000	         -0.01137297	         -0.00000000	         -0.00000003	         -0.00000000	         -0.00000000	          0.00000000	         -0.00000000	          0.00000000	         -0.08903190	          0.00000000	          0.00000000	          0.00000000	          0.00000000	
          1.89500000	        -50.33033787	        392.29237361	          3.35127182	         -0.45283206	          0.00000000	         -0.01195535	         -0.00000000	         -0.00000004	         -0.00000000	         -0.00000000	          0.00000000	         -0.00000000	          0.00000000	         -0.15273502	          0.00000000	          0.00000000	          0.00000000	          0.00000000	
          1.90000000	        -52.67086695	        408.78541272	          6.89378313	         -0.44625954	          0.00000000	         -0.01257166	          0.00000000	         -0.00000005	         -0.00000000	         -0.00000000	          0.00000000	         -0.00000000	          0.00000000	         -0.20657425	          0.00000000	          0.00000000	          0.00000000	          0.00000000	
          1.90500000	        -55.14606054	        424.98221273	         10.40927824	         -0.44009550	          0.00000000	         -0.01319189	          0.00000000	         -0.00000005	         -0.00000000	         -0.00000000	          0.00000000	         -0.00000000	          0.00000000	         -0.23527833	          0.00000000	          0.00000000	          0.00000000	          0.00000000	
          1.91000000	        -57.66191906	        441.13893173	         13.67952966	         -0.43452340	          0.00000000	         -0.01378354	          0.00000000	         -0.00000006	         -0.00000000	         -0.00000000	          0.00000000	         -0.00000000	          0.00000000	         -0.22634043	          0.00000000	          0.00000000	          0.00000000	          0.00000000	
          1.91500000	        -60.12383666	        457.51238802	         16.52899989	         -0.42963853	          0.00000000	         -0.01431459	          0.00000001	         -0.00000006	         -0.00000000	         -0.00000000	          0.00000000	         -0.00000000	          0.00000000	         -0.17265486	          0.00000000	          0.00000000	         -0.00000000	          0.00000000	
          1.92000000	        -62.46275988	        474.35116829	         18.85662923	         -0.42546933	          0.00000000	         -0.01476138	          0.00000001	         -0.00000005	         -0.00000000	         -0.00000000	          0.00000000	         -0.00000000	          0.00000000	         -0.07520462	          0.00000000	          0.00000000	         -0.00000000	          0.00000000	
